# xmcd
#
# Track frame offsets:
#	150
#	22449
#	41278
#	58186
#	74232
#	88027
#	104299
#	122473
#	136170
#	151585
#	171958
#	193900
#
# Disc length: 2840 seconds
#
# Revision: 1
# Processed by: cddbd v1.5.2PL0 Copyright (c) Steve Scherf et al.
# Submitted via: audiograbber 1.83.01
#
DISCID=a90b160c
DTITLE=Tim McGraw - Number One Hits [Disc 1]
DYEAR=2010
DGENRE=Country
TTITLE0=Live Like You Were Dying
TTITLE1=Don't Take The Girl
TTITLE2=It's Your Love (with Faith Hill)
TTITLE3=Just To See You Smile
TTITLE4=Something Like That
TTITLE5=My Next Thirty Years
TTITLE6=The Cowboy In Me
TTITLE7=She Never Lets It Go To Her Heart
TTITLE8=I Like It, I Love It
TTITLE9=Watch The Wind Blow By
TTITLE10=Please Remember Me
TTITLE11=Real Good Man
EXTD=
EXTT0=
EXTT1=
EXTT2=
EXTT3=
EXTT4=
EXTT5=
EXTT6=
EXTT7=
EXTT8=
EXTT9=
EXTT10=
EXTT11=
PLAYORDER=
